<svg xmlns="http://www.w3.org/2000/svg" viewBox="0 0 52.33 52.33"><defs><style>.cls-1,.cls-3{fill:#fff;}.cls-1,.cls-2{stroke:#019dd7;stroke-miterlimit:10;stroke-width:2.33px;}.cls-2{fill:none;}.cls-4{fill:#019dd7;}</style></defs><g id="Layer_2" data-name="Layer 2"><g id="Layer_1-2" data-name="Layer 1"><path class="cls-1" d="M26.8,41.09c-9.5,0-11.3,4.89-11.3,9.39"/><path class="cls-1" d="M25.38,41.09c9.49,0,11.29,4.89,11.29,9.39"/><line class="cls-1" x1="20.14" y1="17.71" x2="18.19" y2="10.78"/><circle class="cls-2" cx="17.6" cy="8.68" r="2.01"/><line class="cls-1" x1="31.89" y1="17.71" x2="33.84" y2="10.78"/><circle class="cls-2" cx="34.43" cy="8.68" r="2.01"/><path class="cls-3" d="M25.94,39.93a33.45,33.45,0,0,1-9.17-1.28,4.67,4.67,0,0,1-2.92-4V21.35a4.67,4.67,0,0,1,2.94-4.05,33.42,33.42,0,0,1,18.32,0A4.68,4.68,0,0,1,38,21.35V34.6a4.68,4.68,0,0,1-2.94,4.06A33.57,33.57,0,0,1,25.94,39.93Z"/><path class="cls-4" d="M25.94,17.18h0a32.13,32.13,0,0,1,8.83,1.23,3.58,3.58,0,0,1,2.11,2.94V34.6a3.59,3.59,0,0,1-2.11,2.95,32.31,32.31,0,0,1-17.66,0A3.58,3.58,0,0,1,15,34.6V21.35a3.57,3.57,0,0,1,2.1-2.94,32.13,32.13,0,0,1,8.83-1.23m0-2.31a34.78,34.78,0,0,0-9.49,1.32,5.84,5.84,0,0,0-3.75,5.16V34.6a5.81,5.81,0,0,0,3.75,5.16,34.52,34.52,0,0,0,19,0,5.84,5.84,0,0,0,3.76-5.16V21.35a5.85,5.85,0,0,0-3.76-5.16,34.73,34.73,0,0,0-9.49-1.32Z"/><path class="cls-4" d="M36.88,33.45V34.6a3.59,3.59,0,0,1-2.11,2.95,32.31,32.31,0,0,1-17.66,0A3.58,3.58,0,0,1,15,34.6V33.41l-2.31-.28V34.6a5.81,5.81,0,0,0,3.75,5.16,34.52,34.52,0,0,0,19,0,5.84,5.84,0,0,0,3.76-5.16V33.17Z"/><ellipse class="cls-4" cx="22.48" cy="26.79" rx="2.1" ry="3.73"/><ellipse class="cls-4" cx="30.27" cy="26.79" rx="2.1" ry="3.73"/><rect class="cls-2" x="1.17" y="1.17" width="50" height="50" rx="14.66"/></g></g></svg>